<?xml version="1.0" encoding="UTF-8"?>
<svg width="15px" height="15px" viewBox="0 0 15 15" version="1.1" xmlns="http://www.w3.org/2000/svg" xmlns:xlink="http://www.w3.org/1999/xlink">
    <!-- Generator: Sketch 52.6 (67491) - http://www.bohemiancoding.com/sketch -->
    <title>jungle</title>
    <desc>Created with Sketch.</desc>
    <g id="Design" stroke="none" stroke-width="1" fill="none" fill-rule="evenodd">
        <path d="M2.71609014,10.7362903 C2.71609014,10.7362903 3.16877183,6.78080645 -1.02939879e-12,4.16080645 C-1.02939879e-12,4.16080645 4.30047606,6.01016129 5.20583944,8.88693548 C5.20583944,8.88693548 6.22437324,4.77741935 2.88593461,0 C2.88593461,0 10.920857,8.37322581 7.69541108,15 C7.69541108,15 5.43218029,12.0717742 2.71609014,10.7362903 Z M8.87663847,8.83564516 C8.87663847,8.83564516 8.25428997,6.47258065 7.74493424,5.90758065 C7.74493424,5.90758065 9.83867589,1.84935484 11.8190695,-1.0125234e-13 C11.8190695,-1.0125234e-13 9.32932016,4.31516129 9.555661,7.5 C9.555661,7.5 9.04648293,8.21919355 8.87663847,8.83564516 Z M9.6811678,12.3287097 C9.6811678,12.3287097 9.90750864,6.11290323 15,3.75 C15,3.75 11.7747318,6.6266129 12.3405839,10.171129 C12.3405839,10.171129 10.0771754,11.5067742 9.6811678,12.3287097 Z" id="jungle" fill="#FFFFFF"></path>
    </g>
</svg>