<svg xmlns="http://www.w3.org/2000/svg" viewBox="0 0 187.18 60.94"><defs><style>.cls-1{fill:#08a5ff;}.cls-2{fill:#fff;}</style></defs><title>ugg-logo</title><g id="Layer_2" data-name="Layer 2"><g id="Layer_1-2" data-name="Layer 1"><path class="cls-1" d="M60.19,59.47a4.76,4.76,0,1,1,3.36,1.39A4.56,4.56,0,0,1,60.19,59.47Z"/><path class="cls-2" d="M127.74,22.06v-.25q0-15.45-15.79-15.45H98q-15.8,0-15.79,15.45V45q0,15.45,15.79,15.45h14q15.78,0,15.79-15.45V32.32H106.67l-3.65,8h15.7V45q0,7.5-6.77,7.5H98q-6.77,0-6.77-7.5V21.81q0-7.5,6.77-7.5h14q6.76,0,6.77,7.5V26Z"/><path class="cls-2" d="M187.18,22.06v-.25q0-15.45-15.78-15.45h-14q-15.78,0-15.78,15.45V45q0,15.45,15.78,15.45h14q15.78,0,15.78-15.45V32.32H166.12l-3.65,8h15.69V45q0,7.5-6.76,7.5h-14q-6.76,0-6.76-7.5V21.81q0-7.5,6.76-7.5h14q6.76,0,6.76,7.5V26Z"/><path class="cls-2" d="M35.64,5.82V48.1a26.62,26.62,0,0,1-13.18,3.59A26.62,26.62,0,0,1,9.28,48.1V5.82L0,9.91V53.17l2.07,1.38a36.73,36.73,0,0,0,20.39,6.39,36.73,36.73,0,0,0,20.39-6.39l2.07-1.38V9.91Z"/><path class="cls-1" d="M22.46,0,17.82,2.05V32.34a16.83,16.83,0,0,0,4.64.66h0a16.83,16.83,0,0,0,4.64-.66V2.05Z"/></g></g></svg>