<?xml version="1.0" encoding="UTF-8"?>
<svg width="55px" height="62px" viewBox="0 0 55 62" version="1.1" xmlns="http://www.w3.org/2000/svg" xmlns:xlink="http://www.w3.org/1999/xlink">
    <!-- Generator: Sketch 52.6 (67491) - http://www.bohemiancoding.com/sketch -->
    <title>border-unranked</title>
    <desc>Created with Sketch.</desc>
    <defs>
        <linearGradient x1="50%" y1="100%" x2="50%" y2="3.061617e-15%" id="linearGradient-1">
            <stop stop-color="#2C2C40" offset="0%"></stop>
            <stop stop-color="#4C4C5E" offset="100%"></stop>
        </linearGradient>
        <linearGradient x1="50%" y1="100%" x2="50%" y2="-2.48949813e-15%" id="linearGradient-2">
            <stop stop-color="#4F4F60" offset="0%"></stop>
            <stop stop-color="#2C2C40" offset="100%"></stop>
        </linearGradient>
    </defs>
    <g id="Design" stroke="none" stroke-width="1" fill="none" fill-rule="evenodd">
        <g id="playground" transform="translate(-963.000000, -2467.000000)" fill-rule="nonzero">
            <g id="border-unranked" transform="translate(963.000000, 2468.000000)">
                <g id="Group-3" transform="translate(0.200000, 7.000000)">
                    <path d="M27,0 C41.9116882,-2.73923269e-15 54,12.0883118 54,27 C54,41.9116882 41.9116882,54 27,54 C12.0883118,54 1.82615513e-15,41.9116882 0,27 C-1.82615513e-15,12.0883118 12.0883118,2.73923269e-15 27,0 Z M27,1.08 C12.6847793,1.08 1.08,12.6847793 1.08,27 C1.08,41.3152207 12.6847793,52.92 27,52.92 C41.3152207,52.92 52.92,41.3152207 52.92,27 C52.92,12.6847793 41.3152207,1.08 27,1.08 Z" id="Combined-Shape-Copy-21" fill="url(#linearGradient-1)"></path>
                    <path d="M27,1.08 C41.3152207,1.08 52.92,12.6847793 52.92,27 C52.92,41.3152207 41.3152207,52.92 27,52.92 C12.6847793,52.92 1.08,41.3152207 1.08,27 C1.08,12.6847793 12.6847793,1.08 27,1.08 Z M27,2.16 C13.2812468,2.16 2.16,13.2812468 2.16,27 C2.16,40.7187532 13.2812468,51.84 27,51.84 C40.7187532,51.84 51.84,40.7187532 51.84,27 C51.84,13.2812468 40.7187532,2.16 27,2.16 Z" id="Combined-Shape-Copy-22" fill="url(#linearGradient-2)"></path>
                </g>
                <g id="Group-8-Copy-8" transform="translate(15.200000, 0.000000)" fill="#0B0B23" stroke="#4A4A5C">
                    <g id="Group-8-Copy-2">
                        <path d="M-0.590230211,-0.5 L24.5902302,-0.5 L22.4235635,12.5 L1.57643646,12.5 L-0.590230211,-0.5 Z" id="Rectangle"></path>
                    </g>
                </g>
            </g>
        </g>
    </g>
</svg>