<?xml version="1.0" encoding="UTF-8"?>
<svg width="17px" height="18px" viewBox="0 0 17 18" version="1.1" xmlns="http://www.w3.org/2000/svg" xmlns:xlink="http://www.w3.org/1999/xlink">
    <!-- Generator: Sketch 52.3 (67297) - http://www.bohemiancoding.com/sketch -->
    <title>ion-android-refresh - Ionicons</title>
    <desc>Created with Sketch.</desc>
    <g id="Symbols" stroke="none" stroke-width="1" fill="none" fill-rule="evenodd">
        <g id="Updating-Notification" transform="translate(-360.000000, -32.000000)" fill="#0B0B23">
            <g id="Group" transform="translate(360.000000, 29.000000)">
                <path d="M8.5,18.1875 C9.81250656,18.1875 10.9921823,17.8281286 12.0390625,17.109375 C13.0859427,16.3906214 13.8281228,15.4375059 14.265625,14.25 L16.421875,14.25 C15.9218725,16.0000087 14.9453198,17.4374944 13.4921875,18.5625 C12.0390552,19.6875056 10.3750094,20.25 8.5,20.25 C6.21873859,20.25 4.27344555,19.4453205 2.6640625,17.8359375 C1.05467945,16.2265545 0.25,14.2812614 0.25,12 C0.25,9.71873859 1.05467945,7.77344555 2.6640625,6.1640625 C4.27344555,4.55467945 6.21873859,3.75 8.5,3.75 C10.7500113,3.75 12.6874919,4.56249187 14.3125,6.1875 L16.75,3.75 L16.75,10.96875 L9.53125,10.96875 L12.8125,7.6875 C11.6249941,6.43749375 10.1875084,5.8125 8.5,5.8125 C6.78124141,5.8125 5.32031852,6.41405648 4.1171875,7.6171875 C2.91405648,8.82031852 2.3125,10.2812414 2.3125,12 C2.3125,13.7187586 2.91405648,15.1796815 4.1171875,16.3828125 C5.32031852,17.5859435 6.78124141,18.1875 8.5,18.1875 Z" id="ion-android-refresh---Ionicons"></path>
            </g>
        </g>
    </g>
</svg>