<?xml version="1.0" encoding="UTF-8"?>
<svg width="15px" height="15px" viewBox="0 0 15 15" version="1.1" xmlns="http://www.w3.org/2000/svg" xmlns:xlink="http://www.w3.org/1999/xlink">
    <!-- Generator: Sketch 52.6 (67491) - http://www.bohemiancoding.com/sketch -->
    <title>support</title>
    <desc>Created with Sketch.</desc>
    <g id="Design" stroke="none" stroke-width="1" fill="none" fill-rule="evenodd">
        <path d="M7.5,5.85800679 L7.90227048,5.31647306 L9.5,13.3926698 L7.5,15 L5.5,13.3926698 L7.09772952,5.31647306 L7.5,5.85800679 Z M5.62727217,3.15303339e-14 L9.37272783,3.15303339e-14 L10,1.11066873 L7.5,4.17796095 L5,1.11066873 L5.62727217,3.15303339e-14 Z M15,3.18988384 C14.715329,5.5322795 11.1386044,5.31001663 11.1386044,5.31001663 L12.7799476,7.48050963 L10.1439232,8.54049532 L9,4.90616644 L10.7407319,3.18988384 L15,3.18988384 Z M4.25926808,3.18988384 L6,4.90616644 L4.85607684,8.54049532 L2.22005239,7.48050963 L3.86139557,5.31001663 C3.86139557,5.31001663 0.284670953,5.5322795 0,3.18988384 L4.25926808,3.18988384 Z" id="support" fill="#FFFFFF"></path>
    </g>
</svg>